<svg width="85" height="78" viewBox="0 0 85 78" fill="none" xmlns="http://www.w3.org/2000/svg"><path d="M26.996 73.424H18.716V65.72C14.012 64.952 10.364 63.104 7.772 60.176 5.18 57.2 3.74 54.032 3.452 50.672L13.388 48.44C13.58 50.696 14.468 52.592 16.052 54.128 17.636 55.616 19.892 56.36 22.82 56.36 24.644 56.36 26.132 55.952 27.284 55.136 28.436 54.32 29.012 53.216 29.012 51.824 29.012 49.76 27.524 48.392 24.548 47.72L18.14 46.208C14.06 45.248 10.868 43.568 8.564 41.168 6.26 38.768 5.108 35.888 5.108 32.528 5.108 28.64 6.38 25.352 8.924 22.664 11.516 19.976 14.78 18.296 18.716 17.624V9.848H26.996V17.84C30.644 18.656 33.5 20.216 35.564 22.52 37.628 24.776 38.948 27.32 39.524 30.152L29.516 32.816C28.748 28.832 26.3 26.84 22.172 26.84 20.252 26.84 18.764 27.32 17.708 28.28 16.652 29.192 16.124 30.272 16.124 31.52 16.124 33.584 17.54 34.952 20.372 35.624L26.636 36.992C31.244 38 34.628 39.776 36.788 42.32 38.996 44.816 40.1 47.792 40.1 51.248 40.1 54.704 38.924 57.776 36.572 60.464 34.22 63.152 31.028 64.856 26.996 65.576V73.424zM45.3923 51.68 55.9043 49.52C56.0003 51.44 56.7203 53.096 58.0643 54.488 59.4563 55.832 61.2563 56.504 63.4643 56.504 65.4323 56.504 67.0883 55.904 68.4323 54.704 69.7763 53.456 70.4483 51.8 70.4483 49.736 70.4483 47.528 69.7283 45.824 68.2883 44.624 66.8963 43.424 65.1923 42.824 63.1763 42.824 60.4403 42.824 58.2563 43.832 56.6243 45.848L55.0403 45.272C53.9363 44.936 52.7603 44.576 51.5123 44.192 50.3123 43.808 49.1843 43.448 48.1283 43.112 47.0723 42.776 46.5203 42.584 46.4723 42.536L51.7283 18.272h27.144V27.776H59.5763L57.7043 36.56C59.6243 34.88 62.2643 34.04 65.6243 34.04 70.5203 34.04 74.4323 35.408 77.3603 38.144 80.2883 40.88 81.7523 44.72 81.7523 49.664 81.7523 54.224 80.0963 58.112 76.7843 61.328 73.5203 64.544 69.0803 66.152 63.4643 66.152 58.4723 66.152 54.2723 64.712 50.8643 61.832 47.5043 58.904 45.6803 55.52 45.3923 51.68z" fill="#f3cd03"/></svg>