<svg width="40" height="40" viewBox="0 0 40 40" fill="none" xmlns="http://www.w3.org/2000/svg"><path d="M38.0928.506836H1.90639C1.03615.506836.333069 1.20991.333069 2.08016V38.2665C.333069 39.1368 1.03615 39.8399 1.90639 39.8399H38.0928C38.963 39.8399 39.6661 39.1368 39.6661 38.2665V2.08016C39.6661 1.20991 38.963.506836 38.0928.506836zM33.5498 11.9872H30.4081C27.9448 11.9872 27.4679 13.1573 27.4679 14.8781V18.6689H33.3482L32.5812 24.6032H27.4679V39.8399h-6.131V24.6081h-5.128V18.6689h5.128V14.2931C21.3369 9.21418 24.4393 6.44612 28.9724 6.44612 31.1456 6.44612 33.009 6.60837 33.5547 6.68212V11.9872H33.5498z" fill="#112d57"/></svg>