<svg width="150" height="110" viewBox="0 0 150 110" fill="none" xmlns="http://www.w3.org/2000/svg"><g clip-path="url(#clip0)"><g clip-path="url(#clip1)"><path d="M.0731812 25V29.1011H29.242V25H.0731812zM33.3746 25V29.1011H74.9415C74.9415 29.1011 70.6955 25 65.0722 25H33.3746zM83.0956 25V29.1011H108.243L106.75 25H83.0956zm43.1764.0L124.78 29.1011H149.699V25H126.272zM.0731812 32.9756V37.0767H29.242V32.9756H.0731812zM33.3746 32.9815V37.0767H79.7649C79.7649 37.0767 79.2231 33.9204 78.2781 32.9815H33.3746zM83.0956 32.9815V37.0767H111L109.619 32.9815H83.0956zm40.1914.0L121.905 37.0767H149.699V32.9815H123.287zM8.45562 40.9512V45.0576H21.0878V40.9512H8.45562zm33.30148.0V45.0576H54.3893V40.9512H41.7571zM66.6761 40.9512V45.0576H79.3083C79.3083 45.0576 80.1103 42.8888 80.1103 40.9509H66.6761V40.9512zM91.4781 40.9512V45.0576H113.874L112.381 40.9509H91.4781V40.9512zM120.536 40.9512 119.037 45.0579H141.544V40.9512H120.536zM8.45562 48.9327V53.0332H21.0878V48.9327H8.45562zm33.30148.0V53.0332H74.0224C74.0224 53.0332 76.7216 50.9288 77.5815 48.9321H41.7571V48.9327zm49.721.0V53.0332H104.11V50.7502L104.912 53.0332H128.052L128.912 50.7502V53.0332H141.544V48.9327H117.831L116.573 52.4065 115.308 48.9327H91.4781zM8.45562 56.9077V61.0088H21.0878V56.9077H8.45562zm33.30148.0V61.0088H77.5815C76.7213 59.0185 74.0224 56.9077 74.0224 56.9077H41.7571zm49.721.0V61.0088H104.11V56.9077H91.4781zM106.405 56.9077 107.933 61.0088H125.283L126.735 56.9077h-20.33zM128.912 56.9077V61.0088H141.544V56.9077H128.912zM8.45562 64.8833V68.9844H21.0878V64.8833H8.45562zm33.30148.0V68.9844H54.3893V64.8833H41.7571zM66.6761 64.8833V68.9844H80.1103C80.1103 67.0489 79.3083 64.8833 79.3083 64.8833H66.6761zM91.4781 64.8833V68.9844H104.11V64.8833H91.4781zm17.7949.0L110.754 68.9844h11.631L123.878 64.8833H109.273zM128.912 64.8833V68.9844H141.544V64.8833H128.912zM.301474 72.8592V76.9659H29.4703V72.8589H.301474V72.8592zm33.073126.0V76.9659H78.2781C79.2231 76.0255 79.7649 72.8589 79.7649 72.8589H33.3746V72.8592zM83.3239 72.8592V76.9659H104.11V72.8589H83.3239V72.8592zM112.147 72.8592 113.669 76.9659H119.587L121.016 72.8589h-8.869V72.8592zm16.765.0V76.9659H149.927V72.8589H128.912V72.8592zM.301474 80.8404V84.9415H29.4703V80.8404H.301474zm33.073126.0V84.9353H65.0722C70.6955 84.9353 74.9415 80.8401 74.9415 80.8401H33.3746V80.8404zM83.3239 80.8404V84.9415H104.11V80.8404H83.3239zM115.033 80.8404 116.497 84.9295 116.748 84.9353 118.235 80.8401H115.033V80.8404zM128.912 80.8404V84.9415H149.927V80.8404H128.912z" fill="#1f70c1"/></g></g><defs><clipPath id="clip0"><path d="M0 0h149.854v110H0z" fill="#fff" transform="translate(0.0731812)"/></clipPath><clipPath id="clip1"><path d="M0 0h149.854v60H0z" fill="#fff" transform="translate(0.0731812 25)"/></clipPath></defs></svg>