<svg width="150" height="110" viewBox="0 0 150 110" fill="none" xmlns="http://www.w3.org/2000/svg">
<g clip-path="url(#clip0)">
<g clip-path="url(#clip1)">
<path d="M0.0731812 25V29.1011H29.242V25H0.0731812ZM33.3746 25V29.1011H74.9415C74.9415 29.1011 70.6955 25 65.0722 25H33.3746ZM83.0956 25V29.1011H108.243L106.75 25H83.0956ZM126.272 25L124.78 29.1011H149.699V25H126.272ZM0.0731812 32.9756V37.0767H29.242V32.9756H0.0731812ZM33.3746 32.9815V37.0767H79.7649C79.7649 37.0767 79.2231 33.9204 78.2781 32.9815H33.3746ZM83.0956 32.9815V37.0767H111L109.619 32.9815H83.0956ZM123.287 32.9815L121.905 37.0767H149.699V32.9815H123.287ZM8.45562 40.9512V45.0576H21.0878V40.9512H8.45562ZM41.7571 40.9512V45.0576H54.3893V40.9512H41.7571ZM66.6761 40.9512V45.0576H79.3083C79.3083 45.0576 80.1103 42.8888 80.1103 40.9509H66.6761V40.9512ZM91.4781 40.9512V45.0576H113.874L112.381 40.9509H91.4781V40.9512ZM120.536 40.9512L119.037 45.0579H141.544V40.9512H120.536ZM8.45562 48.9327V53.0332H21.0878V48.9327H8.45562ZM41.7571 48.9327V53.0332H74.0224C74.0224 53.0332 76.7216 50.9288 77.5815 48.9321H41.7571V48.9327ZM91.4781 48.9327V53.0332H104.11V50.7502L104.912 53.0332H128.052L128.912 50.7502V53.0332H141.544V48.9327H117.831L116.573 52.4065L115.308 48.9327H91.4781ZM8.45562 56.9077V61.0088H21.0878V56.9077H8.45562ZM41.7571 56.9077V61.0088H77.5815C76.7213 59.0185 74.0224 56.9077 74.0224 56.9077H41.7571ZM91.4781 56.9077V61.0088H104.11V56.9077H91.4781ZM106.405 56.9077L107.933 61.0088H125.283L126.735 56.9077H106.405ZM128.912 56.9077V61.0088H141.544V56.9077H128.912ZM8.45562 64.8833V68.9844H21.0878V64.8833H8.45562ZM41.7571 64.8833V68.9844H54.3893V64.8833H41.7571ZM66.6761 64.8833V68.9844H80.1103C80.1103 67.0489 79.3083 64.8833 79.3083 64.8833H66.6761ZM91.4781 64.8833V68.9844H104.11V64.8833H91.4781ZM109.273 64.8833L110.754 68.9844H122.385L123.878 64.8833H109.273ZM128.912 64.8833V68.9844H141.544V64.8833H128.912ZM0.301474 72.8592V76.9659H29.4703V72.8589H0.301474V72.8592ZM33.3746 72.8592V76.9659H78.2781C79.2231 76.0255 79.7649 72.8589 79.7649 72.8589H33.3746V72.8592ZM83.3239 72.8592V76.9659H104.11V72.8589H83.3239V72.8592ZM112.147 72.8592L113.669 76.9659H119.587L121.016 72.8589H112.147V72.8592ZM128.912 72.8592V76.9659H149.927V72.8589H128.912V72.8592ZM0.301474 80.8404V84.9415H29.4703V80.8404H0.301474ZM33.3746 80.8404V84.9353H65.0722C70.6955 84.9353 74.9415 80.8401 74.9415 80.8401H33.3746V80.8404ZM83.3239 80.8404V84.9415H104.11V80.8404H83.3239ZM115.033 80.8404L116.497 84.9295L116.748 84.9353L118.235 80.8401H115.033V80.8404ZM128.912 80.8404V84.9415H149.927V80.8404H128.912Z" fill="#1F70C1"/>
</g>
</g>
<defs>
<clipPath id="clip0">
<rect width="149.854" height="110" fill="white" transform="translate(0.0731812)"/>
</clipPath>
<clipPath id="clip1">
<rect width="149.854" height="60" fill="white" transform="translate(0.0731812 25)"/>
</clipPath>
</defs>
</svg>
